<svg width="32" height="32" viewBox="0 0 32 32" fill="none" xmlns="http://www.w3.org/2000/svg">
  <defs>
    <linearGradient id="falconGradient" x1="0%" y1="0%" x2="100%" y2="100%">
      <stop offset="0%" stopColor="#3B82F6" stopOpacity="0.9"/>
      <stop offset="50%" stopColor="#8B5CF6" stopOpacity="0.7"/>
      <stop offset="100%" stopColor="#EC4899" stopOpacity="0.5"/>
    </linearGradient>
  </defs>
  
  <!-- Background circle -->
  <circle cx="16" cy="16" r="16" fill="url(#falconGradient)"/>
  
  <!-- Falcon body - diamond pattern -->
  <path 
    d="M16 6L12 10L16 14L20 10L16 6Z" 
    fill="white" 
    opacity="0.9"
  />
  <path 
    d="M8 14L4 18L8 22L12 18L8 14Z" 
    fill="white" 
    opacity="0.7"
  />
  <path 
    d="M24 14L20 18L24 22L28 18L24 14Z" 
    fill="white" 
    opacity="0.7"
  />
  <path 
    d="M16 22L12 26L16 30L20 26L16 22Z" 
    fill="white" 
    opacity="0.5"
  />
  
  <!-- Falcon head -->
  <circle 
    cx="16" 
    cy="12" 
    r="3" 
    fill="white" 
    opacity="0.95"
  />
  
  <!-- Falcon beak -->
  <path 
    d="M13 10L11 8L13 6L15 8L13 10Z" 
    fill="white" 
    opacity="0.8"
  />
  
  <!-- AI circuit elements -->
  <rect 
    x="6" 
    y="6" 
    width="2" 
    height="2" 
    fill="white" 
    opacity="0.6"
  />
  <rect 
    x="24" 
    y="6" 
    width="2" 
    height="2" 
    fill="white" 
    opacity="0.6"
  />
  <rect 
    x="6" 
    y="24" 
    width="2" 
    height="2" 
    fill="white" 
    opacity="0.6"
  />
  <rect 
    x="24" 
    y="24" 
    width="2" 
    height="2" 
    fill="white" 
    opacity="0.6"
  />
  
  <!-- Neural network connections -->
  <path 
    d="M8 8L12 12" 
    stroke="white" 
    strokeWidth="0.5" 
    opacity="0.4"
  />
  <path 
    d="M24 8L20 12" 
    stroke="white" 
    strokeWidth="0.5" 
    opacity="0.4"
  />
  <path 
    d="M8 24L12 20" 
    stroke="white" 
    strokeWidth="0.5" 
    opacity="0.4"
  />
  <path 
    d="M24 24L20 20" 
    stroke="white" 
    strokeWidth="0.5" 
    opacity="0.4"
  />
</svg>
